<svg id="_x33_0" viewBox="0 0 64 64" xmlns="http://www.w3.org/2000/svg"><g><path d="m32 31c-.551 0-1-.449-1-1h-2c0 1.654 1.346 3 3 3s3-1.346 3-3h-2c0 .551-.449 1-1 1z"/><path d="m31 51h6v2h-6z"/><path d="m48 17c-.551 0-1-.449-1-1h-2c0 1.654 1.346 3 3 3s3-1.346 3-3h-2c0 .551-.449 1-1 1z"/><path d="m60.785 27.629c1.428-1.428 2.215-3.327 2.215-5.347 0-2.368-1.131-4.63-3.025-6.051l-.575-.431c-.251-.188-.4-.487-.4-.8v-3c0-6.065-4.935-11-11-11s-11 4.935-11 11v2.014c-1.356-.643-2.866-1.014-4.464-1.014h-1.071c-1.645 0-3.197.392-4.584 1.072-.132-.552-.381-1.054-.716-1.491.545-1.867.835-3.795.835-5.743v-1.838-1c0-1.654-1.346-3-3-3h-11.117c-4.347 0-7.883 3.536-7.883 7.883 0 .849.136 1.688.404 2.493l.411 1.231c-.505.669-.815 1.492-.815 2.393 0 2.206 1.794 4 4 4h.685c.499 1.045 1.247 1.946 2.17 2.628l-.705 3.522-3.72.744c-3.725.745-6.43 4.044-6.43 7.845v21.261c0 2.206 1.794 4 4 4s4-1.794 4-4h8v2c0 3.309 2.691 6 6 6h22c1.103 0 2-.897 2-2v-8h4c1.103 0 2-.897 2-2v-2h4c3.309 0 6-2.691 6-6v-9.653c0-2.154-.874-4.153-2.317-5.616zm-21.785-12.629v-3c0-4.962 4.038-9 9-9s9 4.038 9 9v3c0 .939.448 1.836 1.2 2.4l.575.431c1.393 1.045 2.225 2.709 2.225 4.451 0 1.486-.579 2.883-1.629 3.934l-.27.27c-.614-.368-1.281-.662-1.996-.857l-3.024-.825c-1.311-.357-2.34-1.363-2.75-2.648 2.183-1.187 3.669-3.501 3.669-6.156v-4c0-2.757-2.243-5-5-5h-4c-2.757 0-5 2.243-5 5v4c0 .547.07 1.078.189 1.589-.61-.895-1.359-1.685-2.209-2.352.006-.079.02-.157.02-.237zm16 23.083v2.917h-2v-4c0-1.103-.897-2-2-2h-1.079l4.452-6.36c.41 3.129.627 6.294.627 9.443zm-16 16.917h-10v-6h10zm-16-44v-.343c.658-.233 1.255-.588 1.785-1.022-.085.554-.198 1.103-.333 1.647-.451-.176-.939-.282-1.452-.282zm2.08 20h-.08c-1.103 0-2-.897-2-2s.897-2 2-2v3c0 .34.033.672.08 1zm-3.931-5.79-.299-.06-.705-3.523c.496-.366.943-.793 1.327-1.275-.306.984-.472 2.029-.472 3.112 0 .588.052 1.171.149 1.746zm-1.008 1.838 1.253.251c-.246.518-.394 1.09-.394 1.701 0 .068.017.132.02.199l-1.158 2.027-2.308-2.885zm-2.438 4.681-.424 1.271h-2.559l-.424-1.271 1.704-2.128zm-2.798 3.271h2.19l.863 8.628-1.958 1.958-1.958-1.958zm4.869 6.689-.757-7.576.175-.524.947 1.184 1.827-3.198c.734.865 1.814 1.425 3.034 1.425h.685c.499 1.045 1.247 1.946 2.17 2.628l-.705 3.522-3.72.744c-1.39.278-2.638.913-3.656 1.795zm15.096-2.242-2.87 1.435-2.87-1.435.569-2.843c.722.252 1.494.396 2.301.396s1.579-.144 2.301-.396zm-2.87-4.447c-2.757 0-5-2.243-5-5v-4c0-1.654 1.346-3 3-3h4c1.654 0 3 1.346 3 3v4c0 2.757-2.243 5-5 5zm-4.14 6.048 2.85 1.425-1.277 2.98-1.86-4.348zm4.14 3.49 1.055 2.462h-2.11zm1.291-2.065 2.85-1.425.287.057-1.86 4.348zm3.559-3.323-.705-3.522c.923-.682 1.671-1.583 2.17-2.628h.685c.066 0 .127-.016.192-.019-.116 1.698-.192 3.406-.192 5.102v1.498zm2.15-9.15v-3c1.103 0 2 .897 2 2s-.897 2-2 2h-.08c.047-.328.08-.66.08-1zm14.322-3.347-1.643 2.347h-7.359l-1.643-2.348c1.825-.582 3.255-2 3.86-3.809.473.102.961.157 1.463.157.5 0 .986-.055 1.457-.155.606 1.81 2.04 3.228 3.865 3.808zm-7.601 4.347h4.559l-2.28 3.256zm2.279-10c-2.757 0-5-2.243-5-5v-4c0-1.654 1.346-3 3-3h4c1.654 0 3 1.346 3 3v4c0 2.757-2.243 5-5 5zm-3.336 1.152c-.291.919-.898 1.693-1.702 2.191.024-.291.038-.584.038-.879 0-1.083-.166-2.128-.472-3.112.583.733 1.307 1.35 2.136 1.8zm-3.664 15.931c0-1.918.087-3.855.239-5.77.716-.485 1.25-1.203 1.533-2.037l3.426 4.895c-.704.309-1.198 1.011-1.198 1.829v4c-.461 0-.914.087-1.345.24-.785-.565-1.682-.988-2.655-1.24zm6-1.083h4v4h-4zm-14.464-22c4.667 0 8.464 3.797 8.464 8.464 0 .662-.104 1.312-.256 1.953-.529-.259-1.116-.417-1.744-.417h-.101c-.465-2.279-2.484-4-4.899-4h-4c-2.414 0-4.434 1.721-4.899 4h-.101c-.628 0-1.214.158-1.744.417-.152-.64-.256-1.291-.256-1.953 0-4.667 3.797-8.464 8.464-8.464zm-9.255 1.961c-.094.014-.185.039-.281.039h-.08c.047-.328.08-.66.08-1v-3c1.103 0 2 .897 2 2 0 .096-.025.187-.039.281-.622.495-1.185 1.058-1.68 1.68zm-14.281.039c-1.103 0-2-.897-2-2s.897-2 2-2v3c0 .34.033.672.08 1zm.143-6h-.143c-.535 0-1.045.11-1.512.301l-.186-.558c-.2-.6-.302-1.226-.302-1.86 0-3.244 2.639-5.883 5.883-5.883h11.117c.551 0 1 .449 1 1v1c0 2.206-1.794 4-4 4h-3.764c-.998 0-1.895-.555-2.341-1.447l-.359-.717-1.748.437c-1.855.463-3.23 1.926-3.645 3.727zm1.857 5v-3.877c0-1.379.935-2.576 2.272-2.91l.263-.066c.861 1.159 2.218 1.853 3.7 1.853h3.765v5c0 2.757-2.243 5-5 5s-5-2.243-5-5zm5 7c.807 0 1.579-.144 2.301-.396l.569 2.843-2.87 1.435-2.87-1.435.569-2.843c.722.252 1.494.396 2.301.396zm-4.14 4.048 2.587 1.293-2.308 2.885-2.171-3.8zm-6.86 29.952c-1.103 0-2-.897-2-2v-2h4v2c0 1.103-.897 2-2 2zm4-4v-18h-2v16h-4v-17.261c0-2.851 2.028-5.325 4.823-5.884l.077-.015 3.962 6.934.947-1.184.175.524-1.026 10.259 4.042 4.041 1.015-1.015c-.005.113-.015.226-.015.34v5.261zm10 4v-9.261c0-2.851 2.028-5.325 4.823-5.884l1.746-.349 2.462 5.755c-.612.343-1.031.989-1.031 1.739v6h-2v-6h-2v6.586l-1.707 1.707 1.414 1.414 1.707-1.707h10.586v4h-12c-2.206 0-4-1.794-4-4zm18 4v-4h2c1.103 0 2 .897 2 2s-.897 2-2 2zm8 0h-2.556c.344-.591.556-1.268.556-2 0-1.474-.81-2.75-2-3.444v-6.556c0-1.103-.897-2-2-2h-2.919l2.35-5.494 1.746.349c2.795.559 4.823 3.033 4.823 5.884zm6-10h-4v-2h4zm10-8c0 2.206-1.794 4-4 4h-10.036c-.137-1.477-.687-2.851-1.535-4h10.156l1.707 1.707 1.414-1.414-1.706-1.707v-3.503c0-3.545-.272-7.108-.777-10.621l.356.097c2.604.71 4.421 3.09 4.421 5.789z"/><path d="m16 19c1.654 0 3-1.346 3-3h-2c0 .551-.449 1-1 1s-1-.449-1-1h-2c0 1.654 1.346 3 3 3z"/></g></svg>