<svg 
  id="Capa_1" 
  enable-background="new 0 0 511.962 511.962" 
  viewBox="0 0 511.962 511.962" 
  xmlns="http://www.w3.org/2000/svg">
<g>
  <path d="m141.223 248.718c-4.143 0-7.5 3.357-7.5 7.5v7.168c0 4.143 3.357 7.5 7.5 7.5s7.5-3.357 7.5-7.5v-7.168c0-4.143-3.357-7.5-7.5-7.5z"/>
  <path d="m196.862 248.718c-4.143 0-7.5 3.357-7.5 7.5v7.168c0 4.143 3.357 7.5 7.5 7.5s7.5-3.357 7.5-7.5v-7.168c0-4.143-3.358-7.5-7.5-7.5z"/>
  <path d="m321.846 162.035h-9.655c-4.143 0-7.5 3.357-7.5 7.5s3.357 7.5 7.5 7.5h9.655c4.143 0 7.5-3.357 7.5-7.5s-3.357-7.5-7.5-7.5z"/>
  <path d="m252.448 28.482c.515 3.759 3.73 6.483 7.421 6.483.339 0 .683-.023 1.027-.07 4.104-.562 6.976-4.345 6.413-8.448l-2.735-19.965c-.562-4.104-4.345-6.971-8.448-6.413-4.104.562-6.976 4.345-6.413 8.448z"/>
  <path d="m192.332 48.702 16.051 12.183c1.355 1.029 2.948 1.526 4.528 1.526 2.266 0 4.505-1.022 5.979-2.966 2.505-3.299 1.86-8.004-1.439-10.508l-16.051-12.182c-3.299-2.505-8.005-1.859-10.508 1.439-2.505 3.299-1.86 8.004 1.44 10.508z"/>
  <path d="m179.143 117.763c.34 0 .683-.023 1.028-.07l19.965-2.736c4.104-.562 6.975-4.346 6.412-8.449-.563-4.104-4.353-6.966-8.449-6.412l-19.965 2.736c-4.104.562-6.975 4.346-6.412 8.449.516 3.757 3.732 6.482 7.421 6.482z"/>
  <path d="m377.913.069c-4.104-.557-7.887 2.308-8.449 6.412l-2.736 19.965c-.562 4.104 2.309 7.887 6.412 8.449.346.047.688.07 1.028.07 3.689 0 6.905-2.725 7.421-6.482l2.736-19.965c.562-4.103-2.309-7.886-6.412-8.449z"/>
  <path d="m443.146 38.194c-2.505-3.301-7.209-3.943-10.509-1.44l-16.052 12.183c-3.3 2.505-3.944 7.209-1.44 10.509 1.476 1.944 3.715 2.966 5.98 2.966 1.579 0 3.173-.497 4.528-1.525l16.052-12.183c3.3-2.506 3.945-7.21 1.441-10.51z"/>
  <path d="m455.902 102.831-19.964-2.736c-4.098-.556-7.886 2.308-8.449 6.412-.562 4.104 2.309 7.887 6.412 8.449l19.964 2.736c.346.047.688.07 1.028.07 3.689 0 6.905-2.725 7.421-6.482.562-4.103-2.309-7.886-6.412-8.449z"/><path d="m329.097 39.284h-24.158c-15.969 0-31.025 7.026-41.309 19.276-2.663 3.173-2.25 7.903.922 10.566 3.172 2.664 7.903 2.251 10.566-.922 7.427-8.847 18.296-13.921 29.82-13.921h24.158c21.459 0 38.918 17.459 38.918 38.918v42.09h-43.497v-35.948c0-4.143-3.357-7.5-7.5-7.5s-7.5 3.357-7.5 7.5v35.949h-43.497c.022-45.283-.04-41.611.041-43.639.165-4.139-3.057-7.627-7.196-7.792-4.164-.189-7.627 3.058-7.792 7.196-.103 2.585-.028-.425-.053 41.584-4.897-2.023-10.184-3.088-15.583-3.088h-18.541c-6.888 0-13.489 2.928-18.113 8.032l-3.614 3.99c-1.968 2.173-4.765 3.302-7.698 3.075-2.924-.219-5.533-1.744-7.156-4.187-4.541-6.832-12.149-10.911-20.353-10.911h-57.315c-22.503 0-40.811 18.308-40.811 40.811v37.594c0 4.143 3.357 7.5 7.5 7.5s7.5-3.357 7.5-7.5v-37.594c0-14.232 11.578-25.811 25.811-25.811h57.315c3.168 0 6.106 1.575 7.86 4.214 4.204 6.324 10.958 10.276 18.53 10.843 7.565.561 14.838-2.337 19.935-7.965l3.613-3.989c1.786-1.972 4.336-3.103 6.996-3.103h18.541c5.656 0 11.115 1.846 15.583 5.234v21.521c0 9.24 3.843 17.926 10.228 24.176v63.397c0 8.881-5.965 16.396-14.099 18.748v-68.819c0-2.081-.864-4.067-2.386-5.486-1.522-1.418-3.565-2.146-5.641-1.995-24.984 1.757-41.849-4.06-51.539-17.783-1.327-1.88-3.443-3.047-5.741-3.165-2.289-.113-4.523.824-6.036 2.559-6.796 7.785-21.34 16.058-77.681 18.378-4.019.165-7.191 3.471-7.191 7.493v68.819c-8.134-2.352-14.099-9.866-14.099-18.748v-20.938c0-4.143-3.357-7.5-7.5-7.5s-7.5 3.357-7.5 7.5v20.938c0 17.606 13.252 32.175 30.305 34.256 4.351 24.456 20.122 45.011 41.582 55.936v15.495c-22.867 6.589-43.467 20.261-58.496 38.938-16.54 20.557-25.649 46.436-25.649 72.871v19.729c0 8.743 7.113 15.855 15.856 15.855h111.199c4.143 0 7.5-3.357 7.5-7.5s-3.357-7.5-7.5-7.5h-111.198c-.473 0-.856-.384-.856-.855v-19.729c0-23.36 7.724-45.308 22.336-63.468 12.298-15.284 28.87-26.719 47.333-32.807 2.887 16.591 17.391 29.246 34.796 29.246s31.909-12.654 34.796-29.246c18.463 6.088 35.034 17.523 47.332 32.807 14.612 18.16 22.336 40.107 22.336 63.468v19.729c0 .472-.384.855-.855.855h-66.032c-4.143 0-7.5 3.357-7.5 7.5s3.357 7.5 7.5 7.5h66.031c8.743 0 15.855-7.112 15.855-15.855v-19.729c0-26.436-9.109-52.314-25.649-72.871-15.028-18.678-35.628-32.35-58.495-38.938v-15.495c21.46-10.925 37.23-31.48 41.582-55.936 17.053-2.081 30.305-16.649 30.305-34.256v-54.275c5.349 3.4 8.749 9.391 8.749 15.871v10.188c0 5.844 3.737 10.832 8.947 12.699v8.86c0 12.723 10.351 23.073 23.073 23.073 12.724 0 23.074-10.351 23.074-23.073v-8.86c5.21-1.868 8.947-6.855 8.947-12.699v-10.188c0-7.763 4.879-14.824 12.141-17.569 13.061-4.938 21.835-17.637 21.835-31.6v-78.106c0-29.73-24.187-53.918-53.918-53.918zm-139.735 334.746c0 11.203-9.115 20.318-20.319 20.318s-20.319-9.115-20.319-20.318c0-7.121 0-12.581 0-19.186 6.481 1.748 13.293 2.681 20.319 2.681s13.838-.933 20.319-2.681zm-20.32-31.505c-34.798 0-63.107-28.31-63.107-63.107v-63.445c33.425-1.721 59.286-5.752 74.752-17.269 11.813 12.298 28.775 18.201 51.463 17.926v62.788c0 34.798-28.31 63.107-63.108 63.107zm156.05-90.299c0 4.451-3.622 8.073-8.074 8.073-4.451 0-8.073-3.622-8.073-8.073v-8.074h16.147zm30.783-63.349c-13.061 4.938-21.836 17.638-21.836 31.601v8.674h-34.042v-8.674c0-13.962-8.775-26.661-21.836-31.601-7.262-2.745-12.141-9.806-12.141-17.568v-21.016h101.994v21.016c.001 7.762-4.878 14.823-12.139 17.568z"/></g></svg>