<svg viewBox="0 0 44 45" fill="none" xmlns="http://www.w3.org/2000/svg">
<g clip-path="url(#clip0)">
<path d="M43.7584 22.3279C43.7584 10.2811 33.9948 0.517578 21.948 0.517578C9.90123 0.517578 0.137695 10.2811 0.137695 22.3279C0.137695 34.3747 9.90123 44.1383 21.948 44.1383C22.0758 44.1383 22.2036 44.1383 22.3314 44.1297V27.1586H17.6456V21.6975H22.3314V17.6762C22.3314 13.0159 25.177 10.4771 29.3346 10.4771C31.3282 10.4771 33.0406 10.6219 33.5348 10.6901V15.5633H30.6722C28.4145 15.5633 27.9714 16.6368 27.9714 18.2129V21.6889H33.3814L32.6743 27.1501H27.9714V43.2948C37.0875 40.6793 43.7584 32.2874 43.7584 22.3279Z" fill="#090427"/>
</g>
<defs>
<clipPath id="clip0">
<rect width="43.6207" height="43.6207" fill="white" transform="translate(0.137695 0.517578)"/>
</clipPath>
</defs>
</svg>
