<svg viewBox="0 0 45 45" fill="none" xmlns="http://www.w3.org/2000/svg">
<g clip-path="url(#clip0)">
<path d="M44.0961 13.5492C43.9939 11.2315 43.6191 9.63805 43.0822 8.25733C42.5283 6.79173 41.6762 5.47958 40.5597 4.38878C39.469 3.28101 38.1481 2.42022 36.6995 1.87499C35.3108 1.33808 33.7257 0.963273 31.408 0.861084C29.0729 0.75024 28.3316 0.724609 22.4093 0.724609C16.487 0.724609 15.7457 0.75024 13.4193 0.852429C11.1016 0.954619 9.50817 1.32976 8.12778 1.86633C6.66184 2.42022 5.34969 3.27235 4.2589 4.38878C3.15112 5.47958 2.29067 6.80038 1.74511 8.24901C1.2082 9.63805 0.83339 11.2228 0.731201 13.5406C0.620357 15.8756 0.594727 16.6169 0.594727 22.5392C0.594727 28.4615 0.620357 29.2028 0.722546 31.5292C0.824736 33.847 1.19987 35.4404 1.73678 36.8211C2.29067 38.2867 3.15112 39.5989 4.2589 40.6896C5.34969 41.7974 6.6705 42.6582 8.11912 43.2034C9.50817 43.7404 11.0929 44.1152 13.411 44.2173C15.7371 44.3199 16.4787 44.3452 22.401 44.3452C28.3233 44.3452 29.0646 44.3199 31.391 44.2173C33.7087 44.1152 35.3022 43.7404 36.6825 43.2034C39.6141 42.07 41.9318 39.7523 43.0652 36.8211C43.6018 35.4321 43.9769 33.847 44.0791 31.5292C44.1813 29.2028 44.2069 28.4615 44.2069 22.5392C44.2069 16.6169 44.1983 15.8756 44.0961 13.5492ZM40.168 31.3588C40.0741 33.4891 39.7163 34.6395 39.418 35.4064C38.6851 37.3067 37.1768 38.815 35.2765 39.5479C34.5096 39.8462 33.3509 40.204 31.2289 40.2975C28.9281 40.4001 28.2381 40.4254 22.418 40.4254C16.5978 40.4254 15.8992 40.4001 13.6067 40.2975C11.4764 40.204 10.326 39.8462 9.5591 39.5479C8.61343 39.1984 7.75264 38.6445 7.05396 37.9202C6.32965 37.2129 5.77576 36.3607 5.42625 35.4151C5.12801 34.6482 4.77018 33.4891 4.67664 31.3674C4.57412 29.0667 4.54882 28.3763 4.54882 22.5562C4.54882 16.7361 4.57412 16.0374 4.67664 13.7453C4.77018 11.6149 5.12801 10.4646 5.42625 9.69764C5.77576 8.75164 6.32965 7.89118 7.06261 7.19217C7.76962 6.46785 8.62175 5.91397 9.56775 5.56479C10.3347 5.26654 11.4937 4.90872 13.6154 4.81485C15.9161 4.71266 16.6065 4.68703 22.4263 4.68703C28.2551 4.68703 28.9451 4.71266 31.2376 4.81485C33.3679 4.90872 34.5183 5.26654 35.2852 5.56479C36.2308 5.91397 37.0916 6.46785 37.7903 7.19217C38.5146 7.8995 39.0685 8.75164 39.418 9.69764C39.7163 10.4646 40.0741 11.6233 40.168 13.7453C40.2702 16.046 40.2958 16.7361 40.2958 22.5562C40.2958 28.3763 40.2702 29.058 40.168 31.3588Z" fill="#090427"/>
<path d="M22.4087 11.334C16.2224 11.334 11.2031 16.3529 11.2031 22.5395C11.2031 28.7261 16.2224 33.7451 22.4087 33.7451C28.5953 33.7451 33.6142 28.7261 33.6142 22.5395C33.6142 16.3529 28.5953 11.334 22.4087 11.334ZM22.4087 29.8083C18.3953 29.8083 15.1399 26.5532 15.1399 22.5395C15.1399 18.5259 18.3953 15.2708 22.4087 15.2708C26.4224 15.2708 29.6774 18.5259 29.6774 22.5395C29.6774 26.5532 26.4224 29.8083 22.4087 29.8083Z" fill="#090427"/>
<path d="M36.6737 10.8914C36.6737 12.336 35.5024 13.5074 34.0574 13.5074C32.6128 13.5074 31.4414 12.336 31.4414 10.8914C31.4414 9.44641 32.6128 8.27539 34.0574 8.27539C35.5024 8.27539 36.6737 9.44641 36.6737 10.8914Z" fill="#090427"/>
</g>
<defs>
<clipPath id="clip0">
<rect width="43.6207" height="43.6207" fill="white" transform="translate(0.517578 0.724609)"/>
</clipPath>
</defs>
</svg>
