<svg viewBox="0 0 45 45" fill="none" xmlns="http://www.w3.org/2000/svg">
<g clip-path="url(#clip0)">
<path d="M22.6375 1.42578C10.6145 1.42578 0.827148 9.41927 0.827148 19.243C0.827148 28.0417 8.588 35.4136 19.066 36.8149C19.7767 36.9657 20.7436 37.2874 20.989 37.8945C21.2071 38.4452 21.1326 39.2958 21.0581 39.8701L20.76 41.7349C20.6782 42.2856 20.3238 43.9032 22.6666 42.9145C25.013 41.9294 35.2366 35.4554 39.8168 30.1573C42.9502 26.704 44.4478 23.1652 44.4478 19.243C44.4478 9.41927 34.6604 1.42578 22.6375 1.42578ZM14.1006 25.0846H9.76394C9.13689 25.0846 8.61889 24.5629 8.61889 23.9341V15.2081C8.61889 14.5774 9.13689 14.0558 9.76394 14.0558C10.3964 14.0558 10.909 14.5774 10.909 15.2081V22.7817H14.1006C14.7331 22.7817 15.2438 23.2997 15.2438 23.9341C15.2438 24.5629 14.7312 25.0846 14.1006 25.0846ZM18.5826 23.9341C18.5826 24.5629 18.07 25.0846 17.4357 25.0846C16.8087 25.0846 16.2961 24.5629 16.2961 23.9341V15.2081C16.2961 14.5774 16.8087 14.0558 17.4412 14.0558C18.07 14.0558 18.5826 14.5774 18.5826 15.2081V23.9341ZM29.017 23.9341C29.017 24.4284 28.7008 24.8664 28.2318 25.0246C28.1155 25.0627 27.9901 25.0809 27.8702 25.0809C27.4867 25.0809 27.1595 24.9155 26.9432 24.6229L22.503 18.556V23.9322C22.503 24.5611 21.9959 25.0827 21.3561 25.0827C20.7273 25.0827 20.2184 24.5611 20.2184 23.9322V15.2081C20.2184 14.7137 20.5328 14.2757 20.9999 14.1194C21.109 14.0776 21.2471 14.0594 21.3525 14.0594C21.7069 14.0594 22.0341 14.2503 22.2522 14.5247L26.7269 20.6152V15.2081C26.7269 14.5774 27.2395 14.0558 27.872 14.0558C28.499 14.0558 29.017 14.5774 29.017 15.2081V23.9341ZM36.0236 18.4179C36.6579 18.4179 37.1686 18.9395 37.1686 19.572C37.1686 20.2027 36.6579 20.7243 36.0236 20.7243H32.8338V22.7817H36.0236C36.6579 22.7817 37.1686 23.2997 37.1686 23.9341C37.1686 24.5629 36.6579 25.0846 36.0236 25.0846H31.687C31.0599 25.0846 30.5474 24.5629 30.5474 23.9341V15.2081C30.5474 14.5774 31.0599 14.0558 31.6924 14.0558H36.029C36.6579 14.0558 37.1686 14.5774 37.1686 15.2081C37.1686 15.8461 36.6579 16.3604 36.0236 16.3604H32.8338V18.4179H36.0236Z" fill="#090427"/>
</g>
<defs>
<clipPath id="clip0">
<rect width="43.6207" height="43.6207" fill="white" transform="translate(0.827148 0.517578)"/>
</clipPath>
</defs>
</svg>
