<svg viewBox="0 0 44 45" fill="none" xmlns="http://www.w3.org/2000/svg">
<g clip-path="url(#clip0)">
<path d="M43.6788 44.3449V44.3431H43.6897V28.3452C43.6897 20.519 42.0049 14.4902 32.8554 14.4902C28.457 14.4902 25.5054 16.9039 24.3003 19.1922H24.1731V15.2209H15.498V44.3431H24.5312V29.9229C24.5312 26.126 25.2509 22.4546 29.9529 22.4546C34.5857 22.4546 34.6548 26.7876 34.6548 30.1664V44.3449H43.6788Z" fill="#090427"/>
<path d="M0.789062 15.2227H9.83309V44.3449H0.789062V15.2227Z" fill="#090427"/>
<path d="M5.30745 0.724609C2.41577 0.724609 0.0693359 3.07104 0.0693359 5.96273C0.0693359 8.85441 2.41577 11.2499 5.30745 11.2499C8.19914 11.2499 10.5456 8.85441 10.5456 5.96273C10.5438 3.07104 8.19732 0.724609 5.30745 0.724609V0.724609Z" fill="#090427"/>
</g>
<defs>
<clipPath id="clip0">
<rect width="43.6207" height="43.6207" fill="white" transform="translate(0.0693359 0.724609)"/>
</clipPath>
</defs>
</svg>
