<svg viewBox="0 0 45 44" fill="none" xmlns="http://www.w3.org/2000/svg">
<g clip-path="url(#clip0)">
<path d="M44.3795 8.59616C42.7573 9.30772 41.0289 9.77937 39.2268 10.0084C41.0807 8.9015 42.4956 7.16213 43.1608 5.06561C41.4324 6.09614 39.5239 6.82407 37.4901 7.23028C35.8489 5.48273 33.5097 4.40039 30.9579 4.40039C26.007 4.40039 22.0211 8.41895 22.0211 13.3454C22.0211 14.0542 22.0811 14.7358 22.2283 15.3846C14.7937 15.022 8.2152 11.4588 3.79588 6.03071C3.02434 7.36932 2.57177 8.9015 2.57177 10.5509C2.57177 13.648 4.16666 16.3934 6.54398 17.9828C5.10723 17.9555 3.69773 17.5384 2.50362 16.8814C2.50362 16.9086 2.50362 16.9441 2.50362 16.9795C2.50362 21.3252 5.60341 24.9348 9.66831 25.7663C8.94039 25.9654 8.14704 26.0608 7.3237 26.0608C6.75118 26.0608 6.17321 26.0281 5.63067 25.9081C6.78935 29.4496 10.0773 32.0532 13.9868 32.1377C10.9442 34.5177 7.08106 35.9518 2.89893 35.9518C2.16556 35.9518 1.46217 35.9191 0.758789 35.8291C4.72009 38.3836 9.41477 39.8422 14.4775 39.8422C30.9334 39.8422 39.9302 26.2107 39.9302 14.395C39.9302 13.9997 39.9165 13.618 39.8975 13.239C41.6723 11.9795 43.1636 10.4064 44.3795 8.59616Z" fill="#090427"/>
</g>
<defs>
<clipPath id="clip0">
<rect width="43.6207" height="43.6207" fill="white" transform="translate(0.758789 0.310547)"/>
</clipPath>
</defs>
</svg>
