<svg viewBox="0 0 45 45" fill="none" xmlns="http://www.w3.org/2000/svg">
<path d="M41.8418 12.1063C41.3705 10.3543 39.9893 8.97332 38.2376 8.50157C35.0374 7.62598 22.2367 7.62598 22.2367 7.62598C22.2367 7.62598 9.43652 7.62598 6.23641 8.46838C4.51841 8.93962 3.10343 10.3546 2.63219 12.1063C1.79004 15.3062 1.79004 21.9423 1.79004 21.9423C1.79004 21.9423 1.79004 28.6118 2.63219 31.7782C3.10393 33.5299 4.48472 34.911 6.23665 35.3827C9.47022 36.2585 22.2372 36.2585 22.2372 36.2585C22.2372 36.2585 35.0374 36.2585 38.2376 35.4161C39.9895 34.9447 41.3705 33.5636 41.8423 31.8119C42.6842 28.6118 42.6842 21.976 42.6842 21.976C42.6842 21.976 42.7179 15.3062 41.8418 12.1063ZM18.1613 28.0729V15.8116L28.8057 21.9423L18.1613 28.0729Z" fill="#090427"/>
</svg>
